Normalized EMG Linear Envelopes
nRows=108
nColumns=4

endheader
time	 med_gas_r	  soleus_r	 tib_ant_r	
3.07762	  0.010450	  0.019297	  0.004890	
3.14919	  0.010662	  0.019270	  0.004647	
3.22077	  0.011002	  0.019138	  0.004494	
3.29234	  0.011435	  0.018516	  0.004525	
3.36391	  0.011862	  0.017498	  0.004735	
3.43548	  0.011999	  0.016646	  0.005103	
3.50706	  0.011552	  0.016308	  0.005692	
3.57863	  0.010783	  0.016776	  0.006340	
3.6502	  0.010281	  0.018190	  0.006501	
3.72177	  0.010220	  0.019813	  0.005960	
3.79335	  0.010438	  0.020643	  0.005356	
3.86492	  0.010851	  0.020847	  0.005477	
3.93649	  0.011340	  0.021309	  0.006337	
4.00806	  0.011698	  0.022086	  0.007130	
4.07964	  0.011891	  0.022587	  0.007172	
4.15121	  0.012112	  0.022547	  0.006795	
4.22278	  0.012527	  0.022157	  0.006790	
4.29435	  0.013026	  0.021791	  0.007143	
4.36593	  0.013358	  0.021500	  0.007114	
4.4375	  0.013501	  0.021019	  0.006416	
4.50907	  0.013578	  0.020687	  0.005522	
4.58065	  0.013499	  0.021494	  0.004935	
4.65222	  0.013173	  0.023770	  0.004843	
4.72379	  0.012803	  0.026442	  0.005343	
4.79536	  0.012547	  0.027666	  0.006343	
4.86694	  0.012190	  0.025804	  0.007221	
4.93851	  0.011426	  0.020613	  0.007293	
5.01008	  0.010535	  0.014952	  0.006899	
5.08165	  0.011029	  0.015421	  0.007286	
5.15323	  0.015694	  0.030788	  0.009382	
5.2248	  0.027250	  0.067406	  0.013399	
5.29637	  0.045860	  0.120921	  0.018803	
5.36794	  0.069407	  0.174902	  0.024041	
5.43952	  0.097822	  0.216420	  0.027795	
5.51109	  0.132076	  0.247785	  0.030285	
5.58266	  0.167451	  0.275521	  0.032164	
5.65423	  0.197058	  0.298959	  0.033720	
5.72581	  0.220605	  0.315366	  0.035416	
5.79738	  0.240108	  0.326622	  0.037238	
5.86895	  0.254053	  0.338780	  0.038151	
5.94052	  0.262779	  0.357335	  0.037491	
6.0121	  0.271360	  0.382729	  0.035939	
6.08367	  0.283555	  0.410367	  0.034801	
6.15524	  0.296751	  0.430784	  0.035024	
6.22681	  0.304922	  0.435314	  0.036651	
6.29839	  0.307121	  0.427633	  0.038690	
6.36996	  0.310802	  0.417873	  0.039954	
6.44153	  0.325348	  0.409297	  0.040317	
6.5131	  0.353180	  0.405449	  0.040598	
6.58468	  0.385764	  0.417264	  0.041378	
6.65625	  0.407694	  0.447649	  0.042724	
6.72782	  0.408426	  0.480752	  0.044323	
6.7994	  0.393458	  0.499860	  0.045531	
6.87097	  0.377197	  0.502410	  0.045994	
6.94254	  0.362470	  0.490936	  0.046051	
7.01411	  0.343377	  0.472183	  0.046266	
7.08569	  0.324456	  0.461775	  0.046750	
7.15726	  0.316620	  0.465232	  0.047276	
7.22883	  0.322012	  0.467897	  0.047804	
7.3004	  0.333419	  0.459593	  0.048153	
7.37198	  0.341678	  0.450229	  0.048101	
7.44355	  0.340763	  0.453788	  0.047993	
7.51512	  0.329476	  0.474169	  0.048122	
7.58669	  0.315291	  0.505323	  0.048261	
7.65827	  0.314863	  0.529669	  0.048096	
7.72984	  0.340139	  0.525943	  0.047586	
7.80141	  0.384137	  0.494906	  0.047142	
7.87298	  0.422894	  0.462672	  0.047032	
7.94456	  0.433107	  0.447244	  0.046759	
8.01613	  0.412037	  0.440101	  0.045958	
8.0877	  0.375083	  0.426431	  0.045098	
8.15927	  0.337371	  0.407879	  0.044612	
8.23085	  0.307360	  0.398052	  0.044464	
8.30242	  0.287849	  0.400201	  0.044606	
8.37399	  0.276431	  0.402352	  0.044762	
8.44556	  0.272491	  0.398495	  0.044409	
8.51714	  0.278900	  0.395354	  0.043564	
8.58871	  0.290910	  0.394198	  0.042586	
8.66028	  0.294592	  0.389774	  0.041268	
8.73185	  0.284722	  0.385908	  0.039468	
8.80343	  0.273328	  0.391418	  0.038045	
8.875	  0.271864	  0.406619	  0.037790	
8.94657	  0.277125	  0.423146	  0.038264	
9.01815	  0.280996	  0.431137	  0.038599	
9.08972	  0.281214	  0.426344	  0.038600	
9.16129	  0.277676	  0.412151	  0.038398	
9.23286	  0.269289	  0.396307	  0.037963	
9.30444	  0.259537	  0.388710	  0.037606	
9.37601	  0.253982	  0.395510	  0.037755	
9.44758	  0.250825	  0.410269	  0.037954	
9.51915	  0.244680	  0.416429	  0.037269	
9.59073	  0.234437	  0.401495	  0.035478	
9.6623	  0.220630	  0.367476	  0.033108	
9.73387	  0.201959	  0.325888	  0.030778	
9.80544	  0.178688	  0.286795	  0.029082	
9.87702	  0.155708	  0.256137	  0.028433	
9.94859	  0.138365	  0.235492	  0.028453	
10.0202	  0.127766	  0.221018	  0.028185	
10.0917	  0.121478	  0.206498	  0.027016	
10.1633	  0.114863	  0.186738	  0.024986	
10.2349	  0.103206	  0.160103	  0.022508	
10.3065	  0.085806	  0.130519	  0.019892	
10.378	  0.065823	  0.103939	  0.017284	
10.4496	  0.046815	  0.082361	  0.015108	
10.5212	  0.031643	  0.064257	  0.013624	
10.5927	  0.021641	  0.047968	  0.012229	
10.6643	  0.015529	  0.031792	  0.010207	
10.7359	  0.010826	  0.014435	  0.007602	
